<?xml version="1.0" standalone="no"?>
<!DOCTYPE svg PUBLIC "-//W3C//DTD SVG 20010904//EN"
 "http://www.w3.org/TR/2001/REC-SVG-20010904/DTD/svg10.dtd">
<svg version="1.0" xmlns="http://www.w3.org/2000/svg"
 width="149.000000pt" height="149.000000pt" viewBox="0 0 149.000000 149.000000"
 preserveAspectRatio="xMidYMid meet">
<metadata>
Created by potrace 1.14, written by Peter Selinger 2001-2017
</metadata>
<g transform="translate(0.000000,149.000000) scale(0.100000,-0.100000)"
fill="#000000" stroke="none">
<path d="M183 1394 c-24 -12 -51 -30 -59 -40 -24 -31 -56 -97 -44 -89 9 5 9 2
3 -11 -8 -16 -11 -1044 -3 -1051 1 -2 3 -7 4 -11 5 -34 85 -112 121 -118 6 -1
12 -3 15 -4 13 -6 1052 -4 1056 2 3 4 11 5 19 1 8 -3 15 0 15 6 0 6 7 11 16
11 8 0 21 6 28 13 25 26 63 83 65 97 3 28 3 1055 0 1078 -2 12 -7 22 -12 22
-4 0 -6 4 -2 10 3 5 -9 23 -27 41 -67 64 -50 63 -627 63 -515 1 -524 1 -568
-20z"/>
</g>
</svg>
